<?xml version="1.0" encoding="UTF-8"?>
<svg id="Capa_1" data-name="Capa 1" xmlns="http://www.w3.org/2000/svg" viewBox="0 0 24 24">
  <defs>
    <style>
      .cls-1 {
        fill: #06c;
        stroke-width: 0px;
      }
    </style>
  </defs>
  <path class="cls-1" d="m13.14,7.56c-.16,0-.29.14-.29.3,0,.16.14.29.3.29.16,0,.31-.14.31-.29s-.15-.3-.32-.29Z"/>
  <path class="cls-1" d="m12,.5C5.65.5.5,5.65.5,12c0,2.77.98,5.31,2.61,7.3.29-.91,1.19-1.57,2.17-1.68.82-.09,1.62.13,2.36.46.9.39,1.82,1.1,2.84,1.03.81-.06,1.4-.71,2.03-1.15.63-.43,1.3-.66,2.07-.58.88.1,1.67.55,2.5.82.56.18,2.5.86,2.91.23.31-.47,1.07-.03.76.44-.77,1.17-2.84.52-3.9.17-.89-.29-1.81-.88-2.77-.8-.74.07-1.28.6-1.86,1.02-1.22.9-2.39.84-3.74.2-.88-.42-1.76-.99-2.77-1-.96,0-1.93.61-1.83,1.65,0,0,0,.02,0,.03,2.08,2.07,4.95,3.35,8.11,3.35,6.35,0,11.5-5.15,11.5-11.5S18.35.5,12,.5Zm-1.7,4.72c.83,0,1.66,0,2.49,0,.81,0,1.61,0,2.42,0,.87,0,1.59.6,1.74,1.45.15.84-.33,1.67-1.13,1.96-.07.03-.14.07-.2.12-.77.73-1.67,1.23-2.69,1.52-.14.04-.28.07-.43.1-.03,0-.08,0-.11-.01-.74-.31-1.19-.86-1.29-1.67-.12-.93.41-1.8,1.28-2.13.05-.02.11-.02.16-.01,1.11.24,2.09.73,2.93,1.49.06.06.11.06.19.03.47-.19.78-.7.72-1.19-.06-.54-.46-.97-.98-1.04-.08-.01-.17-.02-.25-.02-1.62,0-3.24,0-4.86,0-.23,0-.37-.11-.37-.29,0-.18.14-.29.37-.29Zm1.68,7.63c.19.25.28.53.29.84,0,.16-.1.31-.25.31-.31,0-.64.02-.94-.04-.56-.11-.92-.48-1.09-1.03-.03-.09-.06-.12-.15-.13-.8-.1-1.47-.45-2.01-1.05-.12-.14-.23-.29-.34-.44,0,0,.01-.01.02-.02.99.48,1.38.49,2.43.04.05.17.1.34.15.53.03-.04.05-.07.07-.09.29-.45.7-.68,1.23-.7.19,0,.38,0,.57,0,.19,0,.31.13.31.33-.02.43-.19.79-.52,1.07-.02.02-.04.04-.06.05.1.11.2.21.29.32Zm-1.43-6.43c.29-.04.58-.01.87-.02.01,0,.02,0,.05.01-.62.54-.95,1.22-.95,2.03,0,.81.33,1.48.94,2.02,0,.01-.01.01-.01.01-.57.04-1.14.04-1.66-.26-.88-.5-1.26-1.63-.87-2.55.31-.72.85-1.14,1.63-1.25Zm-3.54,2.92c.03-.15.04-.3.08-.45.23-.94.78-1.64,1.62-2.11.02-.01.04-.02.06-.03,0,0,0,0,0,0-1.13,1.33-.58,3.42.9,4.07-.15.06-.3.14-.46.18-.88.23-1.73-.2-2.08-1.04-.06-.14-.08-.29-.13-.44v-.2Zm13.75,6.68c-.77,1.17-2.84.52-3.9.17-.89-.29-1.81-.88-2.77-.8-.74.07-1.28.6-1.86,1.02-1.22.9-2.39.84-3.74.2-.88-.42-1.76-.99-2.77-1-.96,0-1.93.61-1.83,1.65.05.56-.83.56-.88,0-.12-1.33,1.01-2.36,2.27-2.51.82-.09,1.62.13,2.36.46.9.39,1.82,1.1,2.84,1.03.81-.06,1.4-.71,2.03-1.15.63-.43,1.3-.66,2.07-.58.88.1,1.67.55,2.5.82.56.18,2.5.86,2.91.23.31-.47,1.07-.03.76.44Z"/>
</svg>