<?xml version="1.0" encoding="UTF-8"?>
<svg id="Capa_1" data-name="Capa 1" xmlns="http://www.w3.org/2000/svg" viewBox="0 0 24 24">
  <defs>
    <style>
      .cls-1 {
        fill: #06c;
        stroke-width: 0px;
      }
    </style>
  </defs>
  <path class="cls-1" d="m13.12,7.62c-.16,0-.29.14-.29.3,0,.16.14.29.3.29.16,0,.31-.14.31-.29,0-.16-.15-.3-.32-.29Z"/>
  <path class="cls-1" d="m22.73,5.14c-1.29-2.4-3.96-3.71-6.65-3.26-1.38.23-2.58.81-3.45,1.95-.23.3-.42.62-.64.97-.04-.07-.07-.12-.1-.17-.36-.67-.83-1.26-1.45-1.71-1.35-.97-2.88-1.28-4.5-1.04C3.02,2.29.79,4.62.53,7.63c-.15,1.72.28,3.32,1.06,4.84.9,1.77,2.13,3.28,3.54,4.65.09.08.18.16.27.24.05-.07.13-.13.23-.13h2.27c.09,0,.18.04.24.12l.27.36.74-2.13c.04-.12.16-.2.28-.2s.24.08.28.2l1.14,3.3.78-1.6c.05-.1.15-.17.27-.17h4.58c.17,0,.3.13.3.3s-.13.3-.3.3h-4.39l-1.01,2.08c-.05.1-.16.17-.27.17,0,0-.01,0-.02,0-.12,0-.23-.09-.26-.2l-1.09-3.17-.64,1.85c-.04.1-.13.18-.24.2-.11.02-.22-.03-.28-.12l-.52-.69h-1.83c1.8,1.63,3.78,3.04,5.85,4.31.17.11.31.09.47-.02,1.01-.68,2.06-1.31,3.05-2.02,2.07-1.48,3.97-3.14,5.54-5.16,1.1-1.41,1.99-2.94,2.42-4.7.43-1.76.35-3.48-.52-5.1Zm-12.2,1.34c.29-.04.58-.01.87-.02.01,0,.02,0,.05.01-.62.54-.95,1.22-.95,2.03,0,.81.33,1.48.94,2.02,0,0-.01.01-.01.01-.57.04-1.14.04-1.66-.26-.88-.5-1.26-1.63-.87-2.55.31-.72.85-1.14,1.63-1.25Zm-3.41,3.56c-.06-.14-.08-.29-.13-.44v-.2c.03-.15.04-.3.08-.45.23-.94.78-1.64,1.62-2.11.02-.01.04-.02.06-.03,0,0,0,0,0,0-1.13,1.33-.58,3.42.9,4.07-.15.06-.3.14-.46.19-.88.23-1.73-.2-2.08-1.04Zm4.88,4.03c-.31,0-.64.02-.94-.04-.56-.11-.92-.48-1.09-1.03-.03-.09-.06-.12-.15-.13-.8-.1-1.47-.45-2.01-1.05-.12-.14-.23-.29-.34-.44,0,0,.01-.01.02-.02.99.48,1.38.49,2.43.04.05.17.1.34.15.53.03-.04.05-.07.07-.09.29-.45.7-.68,1.23-.7.19,0,.38,0,.57,0,.19,0,.31.13.31.33-.02.43-.19.79-.52,1.07-.02.02-.04.04-.06.05.1.11.2.21.29.32.19.25.28.53.29.84,0,.16-.1.31-.25.31Zm3.81-5.37c-.07.03-.14.07-.2.12-.77.73-1.67,1.23-2.69,1.52-.14.04-.28.07-.43.1-.03,0-.08,0-.11-.01-.74-.31-1.19-.86-1.29-1.67-.12-.93.41-1.8,1.28-2.13.05-.02.11-.02.16-.01,1.11.24,2.09.73,2.93,1.49.06.06.11.06.19.03.47-.19.78-.7.72-1.19-.06-.54-.46-.97-.98-1.04-.08-.01-.17-.02-.25-.02-1.62,0-3.24,0-4.86,0-.23,0-.37-.11-.37-.29,0-.18.14-.29.37-.29.83,0,1.66,0,2.49,0,.81,0,1.61,0,2.42,0,.87,0,1.59.6,1.74,1.45.15.84-.33,1.67-1.13,1.96Z"/>
</svg>