<?xml version="1.0" encoding="UTF-8"?>
<svg id="Capa_1" data-name="Capa 1" xmlns="http://www.w3.org/2000/svg" xmlns:xlink="http://www.w3.org/1999/xlink" viewBox="0 0 512 512">
  <defs>
    <style>
      .cls-1 {
        fill: url(#linear-gradient);
      }

      .cls-1, .cls-2, .cls-3, .cls-4, .cls-5, .cls-6, .cls-7, .cls-8 {
        stroke-width: 0px;
      }

      .cls-2 {
        fill: url(#linear-gradient-6);
      }

      .cls-3 {
        fill: url(#linear-gradient-5);
      }

      .cls-4 {
        fill: url(#linear-gradient-2);
      }

      .cls-5 {
        fill: url(#linear-gradient-7);
      }

      .cls-6 {
        fill: url(#linear-gradient-3);
      }

      .cls-7 {
        fill: url(#linear-gradient-8);
      }

      .cls-8 {
        fill: url(#linear-gradient-4);
      }
    </style>
    <linearGradient id="linear-gradient" x1="1" y1="266.02" x2="511" y2="266.02" gradientUnits="userSpaceOnUse">
      <stop offset="0" stop-color="#0069c7"/>
      <stop offset=".43" stop-color="#077ed8"/>
      <stop offset="1" stop-color="#1198ec"/>
    </linearGradient>
    <linearGradient id="linear-gradient-2" x1="1.73" y1="194.17" x2="510.57" y2="194.17" xlink:href="#linear-gradient"/>
    <linearGradient id="linear-gradient-3" x1="16.31" y1="338.28" x2="495.48" y2="338.28" xlink:href="#linear-gradient"/>
    <linearGradient id="linear-gradient-4" x1="19.23" y1="122.71" x2="492.4" y2="122.71" xlink:href="#linear-gradient"/>
    <linearGradient id="linear-gradient-5" x1="57.24" y1="410.9" x2="454.69" y2="410.9" xlink:href="#linear-gradient"/>
    <linearGradient id="linear-gradient-6" x1="62.73" y1="60.34" x2="448.52" y2="60.34" xlink:href="#linear-gradient"/>
    <linearGradient id="linear-gradient-7" x1="149.46" y1="476.81" x2="388.82" y2="476.81" xlink:href="#linear-gradient"/>
    <linearGradient id="linear-gradient-8" x1="167.68" y1="9.54" x2="344.57" y2="9.54" xlink:href="#linear-gradient"/>
  </defs>
  <path class="cls-1" d="m511,270.06c-.96,7.78-1.8,14.9-2.74,22.01-.44,3.36-1.28,6.67-1.54,10.04-.21,2.67-1.36,3.45-3.87,3.42-8.61-.09-17.23-.03-25.84-.02-69.94.1-139.87.21-209.81.28-6.8,0-13.64.17-20.39-.45-20.47-1.89-37.98-9.67-51.02-26.26-3.72-4.73-7.66-9.62-12.46-13.11-7.4-5.39-14.04-3.79-20.99,3.85-3.98,4.38-7.64,9.04-11.56,13.48-8.16,9.24-17.82,16.06-29.9,19.45-7.04,1.97-14.07,2.8-21.33,2.78-29.92-.07-59.85-.08-89.77.04-3.49.01-4.55-1.04-4.92-4.55-.97-9.26-2.52-18.46-3.8-27.69-.12-.88-.02-1.8-.02-3.27,1.45,0,2.86,0,4.27,0,33.21-.03,66.43.38,99.63-.24,23.3-.44,42.12-10.76,56.7-29.06,3.71-4.65,8.33-8.69,13-12.41,3.9-3.1,8.16-2.78,12.06.63,4.41,3.87,8.57,8.09,12.42,12.52,7.11,8.21,14.57,16.08,24.63,20.49,6.58,2.88,13.57,5.67,20.61,6.48,11.86,1.37,23.91,1.5,35.88,1.52,75.15.12,150.3.06,225.45.06h5.3Z"/>
  <path class="cls-4" d="m1.73,233.05c.86-6.7,1.58-12.93,2.5-19.14.54-3.67,1.59-7.27,2.09-10.95.65-4.79.85-5.13,5.56-5.13,53.72-.01,107.44.02,161.15-.08,11.76-.02,23.26-1.95,34.02-6.89,7.09-3.25,13.41-7.79,18.75-13.49,4.13-4.4,7.79-9.23,11.88-13.67,3.64-3.95,7.29-8.28,13.1-8.75,2.66-.22,5.66.35,8.09,1.48,5.51,2.56,9.05,7.47,12.36,12.3,4.28,6.24,10.02,10.76,15.94,15.2,7.03,5.28,15,8.77,23.37,10.79,7.58,1.83,15.52,3.02,23.31,3.05,54.74.23,109.48.09,164.21.06,6.13,0,6.41-.05,7.57,5.97,1.84,9.57,3.27,19.22,4.92,29.16-1.83.12-2.82.24-3.8.24-71.62,0-143.25.09-214.87-.11-24.06-.07-42.83-10.84-57.35-29.8-3.06-3.99-7.12-7.3-11.07-10.51-4.82-3.91-12.03-2.57-16.09,1.48-4.26,4.25-8.54,8.55-12.33,13.21-7.37,9.04-16.38,15.65-27.13,20.08-10.65,4.38-21.72,5.9-33.17,5.88-42.73-.09-85.45-.03-128.18-.04-1.33,0-2.67-.18-4.85-.33Z"/>
  <path class="cls-6" d="m16.31,342.56c1.72,0,3.16,0,4.6,0,37.97-.03,75.95.41,113.92-.24,23.66-.4,43.35-10.04,57.94-29.32,3.35-4.43,7.63-8.25,11.87-11.91,4.02-3.47,8.58-3.59,12.6-.25,4.53,3.78,9.02,7.79,12.71,12.37,7.42,9.2,15.94,17.03,26.71,21.84,6.22,2.78,12.94,5,19.65,5.94,9.25,1.29,18.71,1.5,28.08,1.51,61.89.12,123.78.06,185.67.06h5.43c-.7,2.5-1.02,4.65-1.89,6.57-4.12,9.17-8.36,18.29-12.66,27.38-.33.69-1.35,1.2-2.16,1.48-.71.25-1.57.07-2.36.07-48.4,0-96.8-.02-145.2.02-10.59,0-21.08-.88-31.07-4.47-14.71-5.28-26.5-14.52-35.76-27.19-3.81-5.21-8.27-10.05-15.19-11.5-4.78-1-8.63.99-11.65,4.08-5.06,5.19-9.44,11.03-14.42,16.3-8.91,9.45-19.39,16.36-32.17,19.7-9.52,2.48-19.11,3.11-28.87,3.09-42.28-.08-84.56-.08-126.84.05-3.05,0-4.63-.91-5.79-3.61-4.14-9.65-8.44-19.23-12.64-28.85-.34-.78-.29-1.74-.5-3.11Z"/>
  <path class="cls-8" d="m492.4,162.2c-.99.04-1.67.1-2.34.1-41.93-.02-83.86.36-125.79-.22-23.63-.33-43.09-10.17-57.38-29.49-2.5-3.37-5.4-6.53-8.51-9.35-7.73-7.01-14.38-6.06-21.73,1.69-5.66,5.97-10.88,12.37-16.67,18.19-8.58,8.63-19.04,13.85-30.97,16.54-12.04,2.71-24.18,2.48-36.34,2.49-56.43,0-112.87,0-169.3,0-4.83,0-4.95-.18-2.8-4.57,4.71-9.65,9.51-19.27,14.13-28.97.99-2.08,2.37-2.69,4.47-2.69,43.06.05,86.13-.02,129.19.14,21.73.08,43.47.89,65.2.74,10-.07,20.12-.91,29.94-2.75,13.69-2.57,25.74-9.06,35.48-19.23,5.31-5.55,9.99-11.72,15.52-17.03,2.43-2.34,6.14-3.86,9.51-4.58,4.87-1.04,8.66,2.03,11.72,5.43,4.63,5.14,8.7,10.79,13.43,15.82,7.17,7.61,15.94,13.01,25.7,16.7,6.52,2.47,13.15,4.51,20.25,4.72,8.33.25,16.65,1.07,24.98,1.14,17,.16,34,.04,50.99-.11,3.14-.03,4.99.68,6.45,3.84,4.66,10.05,9.79,19.88,14.72,29.8.18.37.09.87.16,1.64Z"/>
  <path class="cls-3" d="m454.69,415.83c-5.96,6.6-11.76,13.35-17.93,19.74-4.48,4.65-9.4,8.88-14.23,13.18-.9.8-2.33,1.41-3.52,1.42-10.43.04-20.92.64-31.26-.32-14.77-1.37-28.09-7.09-39-17.37-4.36-4.11-7.81-9.16-11.86-13.62-2.83-3.13-5.63-6.45-9.03-8.88-6.8-4.87-15.16-2.9-21.22,4.25-5.14,6.06-10.09,12.32-15.71,17.91-8.77,8.74-19.32,14.63-31.71,16.47-6.31.94-12.73,1.54-19.11,1.56-48.28.13-96.57.05-144.85.11-2.94,0-5.22-.6-7.55-2.64-10.95-9.57-20.93-20.03-29.99-31.39-.19-.23-.22-.59-.47-1.35,1.6-.07,3.01-.19,4.41-.19,48.4-.03,96.8.1,145.19-.14,24.3-.12,43.64-10.6,58.55-29.67,2.73-3.5,5.77-6.88,9.18-9.69,6.87-5.66,12.86-4.9,19.33,1.63,5.5,5.56,10.27,11.85,15.86,17.31,9.24,9.02,20.01,15.72,32.92,17.96,7.74,1.34,15.63,2.39,23.46,2.47,27.99.29,55.99.12,83.99.12,1.32,0,2.65,0,3.97,0,.2.37.39.75.59,1.12Z"/>
  <path class="cls-2" d="m448.52,89.58c-13.26.09-26.05.07-38.17-4.96-11.46-4.76-21.18-11.74-28.73-21.81-3.39-4.51-7.5-8.54-11.63-12.41-5.23-4.9-12.45-5.25-17.67-.39-5.61,5.22-10.62,11.1-15.74,16.83-8.52,9.52-18.93,16.15-31.04,19.91-9.7,3.02-19.91,3.16-29.92,3.19-69.71.21-139.42.11-209.13.11-.89,0-1.77-.09-3.75-.2,4.3-4.79,7.81-9.29,11.93-13.14,7.47-7,15.33-13.59,22.96-20.43,2.05-1.84,4.22-2.55,7-2.54,69.37.07,138.74.05,208.11.06,9.42,0,18.84-.26,27.94-2.98,11.77-3.52,22.54-8.97,30.7-18.41,2.8-3.24,4.98-1.39,7.16-.09,14.23,8.49,28.6,16.84,40.85,28.14,9.65,8.91,18.87,18.3,28.27,27.5.3.29.42.78.86,1.63Z"/>
  <path class="cls-5" d="m149.71,486.91c1.32,0,2.63,0,3.95,0,41.58,0,83.17.37,124.75-.16,23.93-.3,43.78-9.98,58.73-29.23,3.51-4.52,8.13-8.21,12.47-12.03,3.77-3.32,8.31-3.01,11.9-.17,4.77,3.77,8.93,8.33,13.27,12.63,3.97,3.92,7.72,8.07,11.79,11.88,2.92,2.73,3.15,2.82-.19,4.76-14.07,8.22-28.59,15.48-44.07,20.71-6.88,2.32-13.67,5.01-20.69,6.85-7.45,1.95-15.07,3.47-22.71,4.47-12.42,1.63-24.88,3.3-37.37,3.78-11.16.43-22.41-.33-33.56-1.3-9.06-.79-18.19-2.04-27.01-4.21-11.81-2.91-23.4-6.76-34.99-10.48-5.61-1.8-11.02-4.22-16.53-6.36.08-.38.17-.76.25-1.15Z"/>
  <path class="cls-7" d="m344.57,17.62h-176.89c42.31-19.66,122.86-23.3,176.89,0Z"/>
</svg>