<svg width="31" height="31" viewBox="0 0 31 31" fill="none" xmlns="http://www.w3.org/2000/svg">
<path d="M30.65 16.3642C30.59 16.8342 30.54 17.2742 30.49 17.7042C30.46 17.9042 30.41 18.1142 30.4 18.3142C30.39 18.4742 30.32 18.5242 30.17 18.5242C29.65 18.5242 29.13 18.5242 28.62 18.5242C24.42 18.5242 20.21 18.5342 16.01 18.5442C15.6 18.5442 15.19 18.5542 14.78 18.5142C13.55 18.3942 12.5 17.9242 11.71 16.9142C11.49 16.6242 11.25 16.3242 10.96 16.1142C10.51 15.7842 10.12 15.8842 9.7 16.3442C9.46 16.6142 9.24 16.8942 9.01 17.1642C8.52 17.7242 7.94 18.1442 7.21 18.3442C6.79 18.4642 6.36 18.5142 5.93 18.5142C4.13 18.5142 2.33 18.5142 0.53 18.5142C0.32 18.5142 0.26 18.4542 0.23 18.2342C0.17 17.6742 0.08 17.1142 0 16.5442C0 16.4942 0 16.4342 0 16.3442C0.09 16.3442 0.17 16.3442 0.26 16.3442C2.26 16.3442 4.25 16.3642 6.25 16.3342C7.65 16.3042 8.78 15.6842 9.66 14.5642C9.88 14.2842 10.16 14.0342 10.44 13.8042C10.67 13.6142 10.93 13.6342 11.16 13.8442C11.43 14.0842 11.68 14.3342 11.91 14.6042C12.34 15.1042 12.79 15.5842 13.39 15.8542C13.79 16.0342 14.21 16.2042 14.63 16.2442C15.34 16.3242 16.07 16.3342 16.79 16.3342C21.31 16.3342 25.82 16.3342 30.34 16.3342H30.66L30.65 16.3642Z" fill="url(#paint0_linear_1_3)"/>
<path d="M0.0399933 14.1042C0.0899933 13.6942 0.129993 13.3142 0.189993 12.9342C0.219993 12.7142 0.289993 12.4942 0.319993 12.2642C0.359993 11.9742 0.369993 11.9542 0.649993 11.9542C3.87999 11.9542 7.10999 11.9542 10.34 11.9542C11.05 11.9542 11.74 11.8342 12.38 11.5342C12.81 11.3342 13.19 11.0642 13.51 10.7142C13.76 10.4442 13.98 10.1542 14.22 9.88422C14.44 9.64422 14.66 9.38422 15.01 9.35422C15.17 9.34422 15.35 9.37422 15.5 9.44422C15.83 9.60422 16.04 9.90422 16.24 10.1942C16.5 10.5742 16.84 10.8542 17.2 11.1242C17.62 11.4442 18.1 11.6542 18.6 11.7842C19.06 11.8942 19.53 11.9642 20 11.9742C23.29 11.9842 26.58 11.9742 29.87 11.9742C30.24 11.9742 30.26 11.9742 30.33 12.3342C30.44 12.9142 30.53 13.5042 30.63 14.1142C30.52 14.1142 30.46 14.1242 30.4 14.1242C26.1 14.1242 21.79 14.1242 17.49 14.1242C16.04 14.1242 14.92 13.4642 14.04 12.3142C13.86 12.0742 13.61 11.8742 13.37 11.6742C13.08 11.4342 12.65 11.5142 12.4 11.7642C12.14 12.0242 11.89 12.2842 11.66 12.5642C11.22 13.1142 10.68 13.5142 10.03 13.7842C9.38999 14.0542 8.71999 14.1442 8.03999 14.1442C5.46999 14.1442 2.89999 14.1442 0.339993 14.1442C0.259993 14.1442 0.179993 14.1342 0.0499933 14.1242L0.0399933 14.1042Z" fill="url(#paint1_linear_1_3)"/>
<path d="M0.919998 20.7742C1.02 20.7742 1.11 20.7742 1.2 20.7742C3.48 20.7742 5.76 20.7942 8.05 20.7642C9.47 20.7442 10.66 20.1542 11.53 18.9742C11.73 18.7042 11.99 18.4742 12.24 18.2442C12.48 18.0342 12.76 18.0242 13 18.2242C13.27 18.4542 13.54 18.6942 13.76 18.9742C14.21 19.5342 14.72 20.0142 15.37 20.3042C15.74 20.4742 16.15 20.6042 16.55 20.6642C17.11 20.7442 17.67 20.7542 18.24 20.7542C21.96 20.7542 25.68 20.7542 29.4 20.7542H29.73C29.69 20.9042 29.67 21.0342 29.62 21.1542C29.37 21.7142 29.12 22.2642 28.86 22.8242C28.84 22.8642 28.78 22.8942 28.73 22.9142C28.69 22.9342 28.64 22.9142 28.59 22.9142C25.68 22.9142 22.77 22.9142 19.86 22.9142C19.22 22.9142 18.59 22.8642 17.99 22.6442C17.11 22.3242 16.4 21.7642 15.84 20.9842C15.61 20.6642 15.34 20.3742 14.93 20.2842C14.64 20.2242 14.41 20.3442 14.23 20.5342C13.93 20.8542 13.66 21.2042 13.36 21.5242C12.82 22.1042 12.19 22.5242 11.43 22.7242C10.86 22.8742 10.28 22.9142 9.69 22.9142C7.15 22.9142 4.61 22.9142 2.07 22.9142C1.89 22.9142 1.79 22.8542 1.72 22.6942C1.47 22.1042 1.21 21.5242 0.959998 20.9342C0.939998 20.8842 0.939998 20.8242 0.929998 20.7442L0.919998 20.7742Z" fill="url(#paint2_linear_1_3)"/>
<path d="M29.53 9.79423C29.47 9.79423 29.43 9.79423 29.39 9.79423C26.87 9.79423 24.35 9.81423 21.83 9.78423C20.41 9.76423 19.24 9.16423 18.38 7.98423C18.23 7.77423 18.06 7.58423 17.87 7.41423C17.41 6.98423 17.01 7.04423 16.56 7.51423C16.22 7.87423 15.91 8.26423 15.56 8.62423C15.04 9.15423 14.42 9.46423 13.7 9.63423C12.98 9.80423 12.25 9.78423 11.52 9.78423C8.13 9.78423 4.74 9.78423 1.34 9.78423C1.05 9.78423 1.04 9.77423 1.17 9.50423C1.45 8.91423 1.74 8.33423 2.02 7.74423C2.08 7.61423 2.16 7.58423 2.29 7.58423C4.88 7.58423 7.47 7.58423 10.05 7.58423C11.36 7.58423 12.66 7.63423 13.97 7.62423C14.57 7.62423 15.18 7.56423 15.77 7.45423C16.59 7.29423 17.32 6.90423 17.9 6.28423C18.22 5.94423 18.5 5.57423 18.83 5.24423C18.98 5.10423 19.2 5.00423 19.4 4.96423C19.69 4.90423 19.92 5.08423 20.1 5.29423C20.38 5.60423 20.62 5.95423 20.91 6.25423C21.34 6.71423 21.87 7.04423 22.45 7.27423C22.84 7.42423 23.24 7.54423 23.67 7.56423C24.17 7.58423 24.67 7.62423 25.17 7.63423C26.19 7.63423 27.21 7.63423 28.23 7.63423C28.42 7.63423 28.53 7.67423 28.62 7.86423C28.9 8.47423 29.21 9.07423 29.5 9.68423C29.51 9.70423 29.5 9.73423 29.5 9.78423L29.53 9.79423Z" fill="url(#paint3_linear_1_3)"/>
<path d="M27.27 25.2342C26.91 25.6342 26.56 26.0442 26.19 26.4342C25.92 26.7142 25.63 26.9742 25.33 27.2342C25.28 27.2842 25.19 27.3242 25.12 27.3242C24.49 27.3242 23.86 27.3642 23.24 27.3042C22.35 27.2242 21.55 26.8742 20.9 26.2442C20.64 25.9942 20.43 25.6842 20.19 25.4142C20.02 25.2242 19.85 25.0242 19.65 24.8742C19.24 24.5742 18.74 24.6942 18.37 25.1342C18.06 25.5042 17.76 25.8842 17.43 26.2242C16.9 26.7542 16.27 27.1142 15.52 27.2242C15.14 27.2842 14.75 27.3142 14.37 27.3142C11.47 27.3142 8.57 27.3142 5.66 27.3142C5.48 27.3142 5.35 27.2742 5.21 27.1542C4.55 26.5742 3.95 25.9342 3.41 25.2442C3.4 25.2342 3.4 25.2042 3.38 25.1642C3.48 25.1642 3.56 25.1542 3.65 25.1542C6.56 25.1542 9.47 25.1542 12.38 25.1542C13.84 25.1542 15 24.5042 15.9 23.3442C16.06 23.1342 16.25 22.9242 16.45 22.7542C16.86 22.4142 17.22 22.4542 17.61 22.8542C17.94 23.1942 18.23 23.5742 18.56 23.9042C19.12 24.4542 19.76 24.8642 20.54 24.9942C21 25.0742 21.48 25.1442 21.95 25.1442C23.63 25.1642 25.32 25.1442 27 25.1442C27.08 25.1442 27.16 25.1442 27.24 25.1442C27.25 25.1642 27.26 25.1942 27.28 25.2142L27.27 25.2342Z" fill="url(#paint4_linear_1_3)"/>
<path d="M26.9 5.37422C26.1 5.37422 25.33 5.37422 24.61 5.07422C23.92 4.78422 23.34 4.35422 22.88 3.74422C22.68 3.47422 22.43 3.22422 22.18 2.98422C21.87 2.68422 21.43 2.66422 21.12 2.96422C20.78 3.28422 20.48 3.64422 20.17 3.98422C19.66 4.56422 19.03 4.96422 18.3 5.19422C17.72 5.37422 17.1 5.38422 16.5 5.38422C12.31 5.39422 8.12 5.38422 3.93 5.38422C3.88 5.38422 3.82 5.38422 3.7 5.37422C3.96 5.08422 4.17 4.80422 4.42 4.57422C4.87 4.14422 5.34 3.74422 5.8 3.33422C5.92 3.22422 6.05 3.17422 6.22 3.18422C10.39 3.18422 14.56 3.18422 18.73 3.18422C19.3 3.18422 19.86 3.16422 20.41 3.00422C21.12 2.79422 21.76 2.45422 22.26 1.88422C22.43 1.68422 22.56 1.80422 22.69 1.88422C23.55 2.40422 24.41 2.91422 25.15 3.59422C25.73 4.13422 26.28 4.70422 26.85 5.26422C26.87 5.28422 26.88 5.31422 26.9 5.36422V5.37422Z" fill="url(#paint5_linear_1_3)"/>
<path d="M8.94 29.5642C9.02 29.5642 9.1 29.5642 9.18 29.5642C11.68 29.5642 14.18 29.5842 16.68 29.5642C18.12 29.5442 19.31 28.9542 20.21 27.7842C20.42 27.5042 20.7 27.2842 20.96 27.0542C21.19 26.8542 21.46 26.8742 21.68 27.0442C21.97 27.2742 22.22 27.5542 22.48 27.8142C22.72 28.0542 22.94 28.3042 23.19 28.5342C23.37 28.7042 23.38 28.7042 23.18 28.8242C22.33 29.3242 21.46 29.7642 20.53 30.0842C20.12 30.2242 19.71 30.3942 19.29 30.5042C18.84 30.6242 18.38 30.7142 17.93 30.7742C17.18 30.8742 16.43 30.9742 15.68 31.0042C15.01 31.0342 14.33 30.9842 13.66 30.9242C13.12 30.8742 12.57 30.8042 12.04 30.6642C11.33 30.4842 10.63 30.2542 9.94 30.0242C9.6 29.9142 9.28 29.7642 8.95 29.6342C8.95 29.6142 8.96 29.5842 8.97 29.5642H8.94Z" fill="url(#paint6_linear_1_3)"/>
<path d="M20.65 0.984226H10.02C12.56 -0.215774 17.4 -0.435774 20.65 0.984226Z" fill="url(#paint7_linear_1_3)"/>
<defs>
<linearGradient id="paint0_linear_1_3" x1="0" y1="16.1142" x2="30.65" y2="16.1142" gradientUnits="userSpaceOnUse">
<stop stop-color="#0069C7"/>
<stop offset="0.43" stop-color="#077ED8"/>
<stop offset="1" stop-color="#1198EC"/>
</linearGradient>
<linearGradient id="paint1_linear_1_3" x1="0.0399933" y1="11.7342" x2="30.63" y2="11.7342" gradientUnits="userSpaceOnUse">
<stop stop-color="#0069C7"/>
<stop offset="0.43" stop-color="#077ED8"/>
<stop offset="1" stop-color="#1198EC"/>
</linearGradient>
<linearGradient id="paint2_linear_1_3" x1="0.919998" y1="20.5142" x2="29.72" y2="20.5142" gradientUnits="userSpaceOnUse">
<stop stop-color="#0069C7"/>
<stop offset="0.43" stop-color="#077ED8"/>
<stop offset="1" stop-color="#1198EC"/>
</linearGradient>
<linearGradient id="paint3_linear_1_3" x1="1.1" y1="7.38423" x2="29.53" y2="7.38423" gradientUnits="userSpaceOnUse">
<stop stop-color="#0069C7"/>
<stop offset="0.43" stop-color="#077ED8"/>
<stop offset="1" stop-color="#1198EC"/>
</linearGradient>
<linearGradient id="paint4_linear_1_3" x1="3.38" y1="24.9342" x2="27.27" y2="24.9342" gradientUnits="userSpaceOnUse">
<stop stop-color="#0069C7"/>
<stop offset="0.43" stop-color="#077ED8"/>
<stop offset="1" stop-color="#1198EC"/>
</linearGradient>
<linearGradient id="paint5_linear_1_3" x1="3.71" y1="3.58422" x2="26.9" y2="3.58422" gradientUnits="userSpaceOnUse">
<stop stop-color="#0069C7"/>
<stop offset="0.43" stop-color="#077ED8"/>
<stop offset="1" stop-color="#1198EC"/>
</linearGradient>
<linearGradient id="paint6_linear_1_3" x1="8.92" y1="28.9542" x2="23.31" y2="28.9542" gradientUnits="userSpaceOnUse">
<stop stop-color="#0069C7"/>
<stop offset="0.43" stop-color="#077ED8"/>
<stop offset="1" stop-color="#1198EC"/>
</linearGradient>
<linearGradient id="paint7_linear_1_3" x1="10.02" y1="0.494226" x2="20.65" y2="0.494226" gradientUnits="userSpaceOnUse">
<stop stop-color="#0069C7"/>
<stop offset="0.43" stop-color="#077ED8"/>
<stop offset="1" stop-color="#1198EC"/>
</linearGradient>
</defs>
</svg>
