<?xml version="1.0" encoding="UTF-8"?>
<svg id="Capa_1" data-name="Capa 1" xmlns="http://www.w3.org/2000/svg" viewBox="0 0 24 24">
  <defs>
    <style>
      .cls-1 {
        fill: #06c;
        stroke-width: 0px;
      }
    </style>
  </defs>
  <path class="cls-1" d="m13.75,12.98c-.19,0-.35.17-.35.36,0,.19.17.35.36.35.2,0,.37-.17.37-.35,0-.19-.18-.36-.38-.35Z"/>
  <path class="cls-1" d="m23.03,21.08c-.83-.63-1.15-1.36-1.22-2.27-.18-2.16-.43-4.31-.66-6.46-.16-1.56-.33-3.13-.5-4.69-.04-.42.09-.8.39-1.14.27-.31.54-.61.81-.92.22-.25.24-.5.05-.69-.17-.18-.51-.25-.81-.12-1.39.58-2.9.78-4.42.94-2.29.23-4.6.27-6.9.17-1.97-.08-3.93-.24-5.83-.74-.33-.09-.65-.22-.97-.32-.14-.04-.28-.09-.42-.1-.23-.01-.43.07-.54.25-.12.2-.08.39.06.56.2.23.39.48.61.69.56.53.69,1.13.61,1.83-.22,1.81-.39,3.63-.58,5.44-.18,1.75-.37,3.5-.55,5.25-.02.18-.05.37-.06.55-.03.63-.34,1.15-.9,1.56-.34.25-.61.53-.68.92-.12.72.36,1.33,1.19,1.53.04,0,.08.03.12.04h.52c.48-.11.84-.36,1.24-.64-.16-.08-.3-.15-.43-.22-.26-.14-.34-.37-.2-.57.14-.2.42-.26.68-.13,1.88.95,3.96,1.29,6.11,1.46.42.03.83.06,1.25.09h1.99c.58-.04,1.16-.08,1.74-.13,1.95-.18,3.84-.55,5.56-1.4.28-.14.57-.09.71.12.14.21.06.43-.22.58-.1.05-.19.1-.29.15.29.35.67.58,1.15.69h.52c.09-.03.18-.05.27-.08,1.09-.33,1.46-1.53.61-2.18ZM6.25,7.89c.05-.25.28-.38.63-.32,2.17.35,4.36.46,6.56.35,1.15-.06,2.29-.21,3.43-.32.1-.01.21-.03.31-.04.27-.02.49.11.53.33.04.21-.1.41-.37.46-.45.08-.91.16-1.36.2-1.34.11-2.67.19-4.01.28,0-.02,0-.04,0-.06-1.76,0-3.5-.13-5.23-.4-.34-.05-.53-.24-.48-.48Zm4.36,3.7c.35-.05.7-.02,1.06-.02.01,0,.03,0,.06.02-.75.66-1.15,1.47-1.15,2.46,0,.98.4,1.8,1.14,2.44-.01.01-.01.02-.02.02-.69.04-1.38.05-2.01-.32-1.06-.61-1.53-1.97-1.05-3.09.37-.87,1.03-1.38,1.97-1.51Zm-4.28,3.78v-.24c.03-.18.05-.37.1-.54.28-1.14.94-1.99,1.96-2.56.02-.01.05-.02.07-.04,0,0,0,0,0,0-1.37,1.61-.7,4.14,1.08,4.93-.18.08-.36.17-.55.22-1.06.28-2.1-.24-2.52-1.26-.07-.17-.1-.35-.15-.53Zm6.06,5.4c-.38,0-.77.03-1.14-.05-.68-.13-1.12-.58-1.31-1.24-.03-.11-.08-.15-.18-.16-.97-.12-1.78-.55-2.43-1.27-.15-.17-.28-.35-.41-.53,0,0,.02-.01.02-.02,1.2.58,1.67.59,2.94.04.06.2.12.41.18.65.04-.05.06-.08.08-.11.35-.55.85-.83,1.49-.85.23,0,.46,0,.7,0,.23,0,.38.16.37.39-.02.52-.23.96-.62,1.3-.03.02-.05.05-.08.07.12.13.24.25.35.38.23.3.34.64.35,1.02,0,.2-.12.37-.3.37Zm4.61-6.51c-.09.03-.17.08-.24.14-.93.88-2.02,1.49-3.25,1.83-.17.05-.34.09-.52.12-.04,0-.09,0-.13-.02-.9-.38-1.44-1.05-1.56-2.02-.14-1.12.5-2.17,1.55-2.58.06-.02.13-.03.19-.01,1.34.29,2.53.89,3.55,1.81.08.07.13.07.23.04.57-.23.94-.84.87-1.44-.07-.65-.56-1.17-1.19-1.26-.1-.01-.2-.02-.3-.02-1.96,0-3.92,0-5.88,0-.28,0-.45-.13-.45-.35,0-.22.16-.35.45-.35,1.01,0,2.01,0,3.02,0,.97,0,1.95,0,2.92,0,1.06,0,1.92.73,2.11,1.75.19,1.01-.4,2.02-1.37,2.37Z"/>
  <path class="cls-1" d="m19.85,4.31s-.03-.05-.05-.08c-.43-.52-1.02-.77-1.77-.73-.47.02-.8-.13-1.03-.48-.51-.81-1.31-1.2-2.4-1.13-.36.02-.69-.06-.87-.32-.34-.48-.81-.78-1.44-.92h-.63c-.63.14-1.1.44-1.44.91-.2.28-.54.34-.92.32-1.06-.07-1.84.32-2.34,1.1-.23.36-.56.53-1.04.5-.1,0-.19,0-.29,0-.68.05-1.19.32-1.54.82,2.77,1.06,13.61,1.05,15.75,0Zm-5.46-1.28c.04-.21.24-.34.6-.33.48.05.89.28,1.13.71.11.19.01.41-.2.51-.22.1-.48.06-.62-.12-.13-.17-.28-.28-.53-.31-.26-.03-.41-.24-.37-.46Zm-5.18.45c-.25.03-.41.13-.54.3-.13.18-.41.22-.62.12-.21-.1-.29-.32-.2-.52.19-.39.74-.7,1.24-.69.26,0,.45.13.48.32.04.22-.1.43-.36.46Zm2.2.25c-.23.2-.51.22-.71.05-.2-.16-.2-.39.01-.59.33-.32.75-.49,1.29-.5.51,0,.95.18,1.29.53.18.19.17.43-.03.58-.2.15-.49.13-.7-.05-.37-.33-.78-.34-1.15-.01Z"/>
  <path class="cls-1" d="m20.48,22.65c.1-.05.2-.1.29-.15.28-.15.37-.37.22-.58-.14-.2-.42-.26-.71-.12-1.72.85-3.61,1.22-5.56,1.4-.58.05-1.16.09-1.74.13h8.64c-.48-.11-.86-.33-1.15-.69Z"/>
  <path class="cls-1" d="m3.64,21.79c-.26-.13-.54-.07-.68.13-.14.2-.07.42.2.57.13.07.27.14.43.22-.39.28-.76.53-1.24.64h8.64c-.42-.03-.83-.06-1.25-.09-2.14-.17-4.22-.52-6.11-1.46Z"/>
</svg>