<?xml version="1.0" encoding="UTF-8"?>
<svg id="Capa_1" data-name="Capa 1" xmlns="http://www.w3.org/2000/svg" viewBox="0 0 24 24">
  <defs>
    <style>
      .cls-1 {
        fill: #06c;
        stroke-width: 0px;
      }
    </style>
  </defs>
  <path class="cls-1" d="m12.89,4.43c-.15,0-.28.13-.27.28,0,.15.13.28.28.28.16,0,.29-.13.29-.28s-.14-.28-.3-.28Z"/>
  <path class="cls-1" d="m20.67.5H3.33C1.77.5.5,1.77.5,3.33v17.35c0,1.56,1.27,2.83,2.83,2.83h17.35c1.56,0,2.83-1.27,2.83-2.83V3.33c0-1.56-1.27-2.83-2.83-2.83Zm-10.51,1.68h2.39c.77,0,1.54,0,2.32,0,.84,0,1.52.57,1.67,1.39.15.8-.32,1.6-1.08,1.87-.07.02-.14.06-.19.11-.74.7-1.6,1.18-2.57,1.45-.13.04-.27.07-.41.1-.03,0-.07,0-.11-.01-.71-.3-1.14-.83-1.23-1.6-.11-.89.39-1.72,1.23-2.04.05-.02.1-.02.15-.01,1.06.23,2,.7,2.81,1.43.06.05.11.06.18.03.45-.18.75-.67.69-1.14-.06-.52-.44-.93-.94-1-.08-.01-.16-.02-.24-.02-1.55,0-3.11,0-4.66,0-.22,0-.35-.1-.35-.28,0-.18.13-.28.35-.28Zm1.61,7.31c.18.24.27.51.28.81,0,.16-.09.29-.24.29-.3,0-.61.02-.9-.04-.54-.11-.88-.46-1.04-.99-.03-.09-.06-.12-.15-.13-.77-.09-1.41-.43-1.92-1-.12-.13-.22-.28-.33-.42,0,0,.01-.01.02-.02.95.46,1.32.47,2.33.03.05.16.09.32.15.51.03-.04.05-.06.06-.08.28-.43.67-.66,1.18-.67.18,0,.37,0,.55,0,.18,0,.3.13.29.31-.02.41-.18.76-.49,1.03-.02.02-.04.04-.06.05.09.1.19.2.28.3Zm-1.37-6.17c.28-.04.56-.01.84-.02.01,0,.02,0,.05.01-.6.52-.91,1.17-.91,1.95,0,.78.32,1.42.9,1.93,0,0,0,.01-.01.01-.55.03-1.09.04-1.59-.25-.84-.48-1.21-1.56-.83-2.45.3-.69.82-1.1,1.56-1.19Zm-3.39,2.8c.03-.14.04-.29.08-.43.22-.9.75-1.58,1.56-2.03.02-.01.04-.02.06-.03,0,0,0,0,0,0-1.09,1.27-.56,3.27.86,3.9-.15.06-.29.14-.44.18-.84.22-1.66-.19-2-1-.06-.13-.08-.28-.12-.42v-.19Zm-.46,9.57c0,1.76,0,3.53,0,5.29,0,.45-.1.55-.54.55-.73,0-1.47,0-2.2,0-.39,0-.5-.11-.5-.5,0-.98,0-1.95,0-2.93v-.19c.15-.03.29-.05.43-.09.42-.11.76-.34,1.06-.64l1.71-1.71h.05v.22Zm4.02,5.84c-.76,0-1.52,0-2.28,0-.35,0-.48-.13-.48-.47,0-1.84,0-3.67,0-5.51,0-.04,0-.07,0-.17.4.4.77.77,1.13,1.13.19.19.39.39.58.58.38.38.84.6,1.38.64.04,0,.09.02.14.02,0,.06,0,.12,0,.18,0,1.03,0,2.06,0,3.09,0,.37-.12.49-.49.49Zm5.01-7.06c0,2.17,0,4.34,0,6.51,0,.44-.11.55-.54.55-.73,0-1.46,0-2.18,0-.43,0-.53-.11-.53-.54,0-1.14,0-2.28,0-3.42,0-.12.03-.19.13-.26.12-.09.23-.19.34-.3.87-.87,1.74-1.73,2.6-2.6.05-.05.1-.1.19-.18v.25Zm4.5,6.47c0,.08,0,.16,0,.24-.02.2-.13.34-.34.34-.85,0-1.7,0-2.56,0-.21,0-.33-.14-.35-.35,0-.06,0-.12,0-.18,0-2.61,0-5.22,0-7.83,0-.16.05-.27.16-.38.9-.9,1.8-1.8,2.7-2.69.05-.05.09-.09.14-.13.23.11.26.28.26.5,0,3.49,0,6.99,0,10.48Zm2-15.36c-.02.37-.05.73-.07,1.1-.03.64-.06,1.28-.09,1.93-.01.26-.09.5-.32.67-.25.18-.5.18-.73-.03-.29-.26-.57-.55-.85-.82-.06-.05-.1-.12-.19-.25-.08.12-.11.19-.16.25-2.58,2.58-5.16,5.17-7.75,7.75-.42.42-.89.51-1.33.24-.11-.07-.21-.16-.3-.25-.98-.97-1.95-1.95-2.92-2.92-.05-.05-.08-.12-.13-.19-.09.08-.14.13-.19.18-1.03,1.02-2.05,2.05-3.07,3.08-.31.31-.66.5-1.09.36-.46-.14-.77-.46-.91-.93-.09-.3,0-.58.17-.84.06-.08.13-.15.2-.22,1.34-1.34,2.69-2.69,4.04-4.03.55-.55,1.11-.55,1.66,0,.97.97,1.95,1.95,2.92,2.92.05.05.1.1.13.13,2.37-2.37,4.73-4.72,7.13-7.11-.31-.31-.64-.61-.95-.93-.26-.26-.28-.55-.07-.82.13-.18.32-.23.53-.25.78-.04,1.56-.08,2.34-.12.39-.02.77-.03,1.16-.05.4-.03.71.08.86.48v.67Z"/>
</svg>