<?xml version="1.0" encoding="utf-8"?>
<!-- Generator: Adobe Illustrator 28.0.0, SVG Export Plug-In . SVG Version: 6.00 Build 0)  -->
<svg version="1.1" id="Capa_1" width="16" height="16" xmlns="http://www.w3.org/2000/svg" xmlns:xlink="http://www.w3.org/1999/xlink" x="0px" y="0px"
	 viewBox="0 0 16 16" style="enable-background:new 0 0 16 16;" xml:space="preserve">
<style type="text/css">
	.st0{fill:#1890FF;}
</style>
<g>
	<path class="st0" d="M9.1,2.8c-1.1,0-2.3,0-3.4,0c-0.2,0-0.4,0-0.5-0.3C5.1,2.3,5.2,2.1,5.5,2c0.1,0,0.1,0,0.2,0c2.2,0,4.4,0,6.7,0
		c1.1,0,2,0.6,2.3,1.6c0.5,1.2-0.1,2.6-1.4,3c-0.2,0.1-0.3,0.2-0.4,0.3C11.7,8,10.3,8.7,8.8,9C8.7,9,8.6,9,8.5,9
		c-1-0.4-1.8-1.4-1.7-2.6c0-1.1,0.7-2.2,1.7-2.5c0.2-0.1,0.5,0,0.7,0.1c1.3,0.4,2.5,1,3.5,1.9c0.1,0.1,0.2,0.1,0.4,0.1
		c0.7-0.3,1-1,0.9-1.8c-0.1-0.7-0.8-1.3-1.5-1.3C11.3,2.8,10.2,2.8,9.1,2.8L9.1,2.8L9.1,2.8z M10,5.6c0-0.2-0.2-0.4-0.4-0.4
		c-0.2,0-0.4,0.2-0.4,0.4C9.2,5.8,9.4,6,9.6,6C9.8,6,10,5.8,10,5.6L10,5.6z"/>
	<path class="st0" d="M7.6,12c0.5,0.4,0.7,0.8,0.8,1.4c0,0.4-0.1,0.6-0.5,0.6c-0.4,0-0.8,0-1.2-0.1c-0.7-0.2-1.2-0.7-1.4-1.4
		c0-0.1-0.1-0.2-0.2-0.2c-1.3-0.2-2.4-0.8-3.1-1.9c0,0,0-0.1-0.1-0.1C3,10.9,4.1,11,5.2,10.3c0.1,0.2,0.1,0.5,0.2,0.7c0,0,0,0,0.1,0
		c0,0,0-0.1,0.1-0.1c0.4-0.6,1-0.9,1.7-1c0.3,0,0.5,0,0.8,0c0.3,0,0.5,0.2,0.5,0.6C8.3,11.1,8.1,11.6,7.6,12L7.6,12z"/>
	<path class="st0" d="M7.2,9.2c-0.3,0-0.6,0-0.9,0c-1.1-0.1-2-0.6-2.5-1.7C3,5.9,4.1,3.9,6,3.7c0.3,0,0.7,0,1,0c0.1,0,0.2,0,0.3,0
		C6.4,4.4,6,5.3,6,6.4C6,7.5,6.4,8.4,7.2,9.2L7.2,9.2z"/>
	<path class="st0" d="M4.8,9.6c-0.7,0.6-1.9,0.5-2.7-0.1C1.3,8.9,1,8.1,1.2,7.1c0.3-1.2,1.2-2.5,2.3-3C2.9,5,2.6,6,2.8,7.2
		C3.1,8.3,3.7,9.1,4.8,9.6L4.8,9.6z"/>
</g>
</svg>
