<?xml version="1.0" encoding="UTF-8"?>
<svg id="Capa_1" data-name="Capa 1" xmlns="http://www.w3.org/2000/svg" xmlns:xlink="http://www.w3.org/1999/xlink" viewBox="0 0 189 32">
  <defs>
    <style>
      .cls-1 {
        fill: url(#linear-gradient);
      }

      .cls-1, .cls-2, .cls-3, .cls-4, .cls-5, .cls-6, .cls-7, .cls-8, .cls-9 {
        stroke-width: 0px;
      }

      .cls-2 {
        fill: url(#linear-gradient-6);
      }

      .cls-3 {
        fill: url(#linear-gradient-5);
      }

      .cls-4 {
        fill: url(#linear-gradient-2);
      }

      .cls-5 {
        fill: url(#linear-gradient-7);
      }

      .cls-6 {
        fill: url(#linear-gradient-3);
      }

      .cls-7 {
        fill: #2e333c;
      }

      .cls-8 {
        fill: url(#linear-gradient-8);
      }

      .cls-9 {
        fill: url(#linear-gradient-4);
      }
    </style>
    <linearGradient id="linear-gradient" x1=".5" y1="16.61" x2="31.15" y2="16.61" gradientUnits="userSpaceOnUse">
      <stop offset="0" stop-color="#0069c7"/>
      <stop offset=".43" stop-color="#077ed8"/>
      <stop offset="1" stop-color="#1198ec"/>
    </linearGradient>
    <linearGradient id="linear-gradient-2" x1=".54" y1="12.23" x2="31.13" y2="12.23" xlink:href="#linear-gradient"/>
    <linearGradient id="linear-gradient-3" x1="1.42" y1="21.01" x2="30.22" y2="21.01" xlink:href="#linear-gradient"/>
    <linearGradient id="linear-gradient-4" x1="1.6" y1="7.88" x2="30.03" y2="7.88" xlink:href="#linear-gradient"/>
    <linearGradient id="linear-gradient-5" x1="3.88" y1="25.43" x2="27.77" y2="25.43" xlink:href="#linear-gradient"/>
    <linearGradient id="linear-gradient-6" x1="4.21" y1="4.08" x2="27.4" y2="4.08" xlink:href="#linear-gradient"/>
    <linearGradient id="linear-gradient-7" x1="9.42" y1="29.45" x2="23.81" y2="29.45" xlink:href="#linear-gradient"/>
    <linearGradient id="linear-gradient-8" x1="10.52" y1=".99" x2="21.15" y2=".99" xlink:href="#linear-gradient"/>
  </defs>
  <g>
    <path class="cls-1" d="m31.15,16.86c-.06.47-.11.91-.16,1.34-.03.2-.08.41-.09.61-.01.16-.08.21-.23.21-.52,0-1.04,0-1.55,0-4.2,0-8.41.01-12.61.02-.41,0-.82.01-1.23-.03-1.23-.12-2.28-.59-3.07-1.6-.22-.29-.46-.59-.75-.8-.45-.33-.84-.23-1.26.23-.24.27-.46.55-.69.82-.49.56-1.07.98-1.8,1.18-.42.12-.85.17-1.28.17-1.8,0-3.6,0-5.4,0-.21,0-.27-.06-.3-.28-.06-.56-.15-1.12-.23-1.69,0-.05,0-.11,0-.2.09,0,.17,0,.26,0,2,0,3.99.02,5.99-.01,1.4-.03,2.53-.65,3.41-1.77.22-.28.5-.53.78-.76.23-.19.49-.17.72.04.27.24.52.49.75.76.43.5.88.98,1.48,1.25.4.18.82.35,1.24.39.71.08,1.44.09,2.16.09,4.52,0,9.03,0,13.55,0h.32Z"/>
    <path class="cls-4" d="m.54,14.6c.05-.41.09-.79.15-1.17.03-.22.1-.44.13-.67.04-.29.05-.31.33-.31,3.23,0,6.46,0,9.69,0,.71,0,1.4-.12,2.04-.42.43-.2.81-.47,1.13-.82.25-.27.47-.56.71-.83.22-.24.44-.5.79-.53.16-.01.34.02.49.09.33.16.54.46.74.75.26.38.6.66.96.93.42.32.9.53,1.4.66.46.11.93.18,1.4.19,3.29.01,6.58,0,9.87,0,.37,0,.39,0,.46.36.11.58.2,1.17.3,1.78-.11,0-.17.01-.23.01-4.3,0-8.61,0-12.91,0-1.45,0-2.57-.66-3.45-1.81-.18-.24-.43-.44-.67-.64-.29-.24-.72-.16-.97.09-.26.26-.51.52-.74.8-.44.55-.98.95-1.63,1.22-.64.27-1.31.36-1.99.36-2.57,0-5.14,0-7.7,0-.08,0-.16-.01-.29-.02Z"/>
    <path class="cls-6" d="m1.42,21.27c.1,0,.19,0,.28,0,2.28,0,4.56.02,6.85-.01,1.42-.02,2.61-.61,3.48-1.79.2-.27.46-.5.71-.73.24-.21.52-.22.76-.02.27.23.54.47.76.75.45.56.96,1.04,1.61,1.33.37.17.78.3,1.18.36.56.08,1.12.09,1.69.09,3.72,0,7.44,0,11.16,0h.33c-.04.15-.06.28-.11.4-.25.56-.5,1.11-.76,1.67-.02.04-.08.07-.13.09-.04.02-.09,0-.14,0-2.91,0-5.82,0-8.73,0-.64,0-1.27-.05-1.87-.27-.88-.32-1.59-.88-2.15-1.66-.23-.32-.5-.61-.91-.7-.29-.06-.52.06-.7.25-.3.32-.57.67-.87.99-.54.58-1.17,1-1.93,1.2-.57.15-1.15.19-1.74.19-2.54,0-5.08,0-7.62,0-.18,0-.28-.06-.35-.22-.25-.59-.51-1.17-.76-1.76-.02-.05-.02-.11-.03-.19Z"/>
    <path class="cls-9" d="m30.03,10.29c-.06,0-.1,0-.14,0-2.52,0-5.04.02-7.56-.01-1.42-.02-2.59-.62-3.45-1.8-.15-.21-.32-.4-.51-.57-.46-.43-.86-.37-1.31.1-.34.36-.65.75-1,1.11-.52.53-1.14.84-1.86,1.01-.72.17-1.45.15-2.18.15-3.39,0-6.78,0-10.18,0-.29,0-.3-.01-.17-.28.28-.59.57-1.17.85-1.76.06-.13.14-.16.27-.16,2.59,0,5.18,0,7.76,0,1.31,0,2.61.05,3.92.04.6,0,1.21-.06,1.8-.17.82-.16,1.55-.55,2.13-1.17.32-.34.6-.71.93-1.04.15-.14.37-.24.57-.28.29-.06.52.12.7.33.28.31.52.66.81.96.43.46.96.79,1.54,1.02.39.15.79.27,1.22.29.5.02,1,.06,1.5.07,1.02,0,2.04,0,3.06,0,.19,0,.3.04.39.23.28.61.59,1.21.88,1.82.01.02,0,.05,0,.1Z"/>
    <path class="cls-3" d="m27.77,25.73c-.36.4-.71.81-1.08,1.2-.27.28-.56.54-.86.8-.05.05-.14.09-.21.09-.63,0-1.26.04-1.88-.02-.89-.08-1.69-.43-2.34-1.06-.26-.25-.47-.56-.71-.83-.17-.19-.34-.39-.54-.54-.41-.3-.91-.18-1.28.26-.31.37-.61.75-.94,1.09-.53.53-1.16.89-1.91,1-.38.06-.77.09-1.15.09-2.9,0-5.8,0-8.71,0-.18,0-.31-.04-.45-.16-.66-.58-1.26-1.22-1.8-1.91-.01-.01-.01-.04-.03-.08.1,0,.18-.01.27-.01,2.91,0,5.82,0,8.73,0,1.46,0,2.62-.65,3.52-1.81.16-.21.35-.42.55-.59.41-.34.77-.3,1.16.1.33.34.62.72.95,1.05.56.55,1.2.96,1.98,1.09.46.08.94.15,1.41.15,1.68.02,3.37,0,5.05,0,.08,0,.16,0,.24,0,.01.02.02.05.04.07Z"/>
    <path class="cls-2" d="m27.4,5.87c-.8,0-1.57,0-2.29-.3-.69-.29-1.27-.72-1.73-1.33-.2-.27-.45-.52-.7-.76-.31-.3-.75-.32-1.06-.02-.34.32-.64.68-.95,1.02-.51.58-1.14.98-1.87,1.21-.58.18-1.2.19-1.8.19-4.19.01-8.38,0-12.57,0-.05,0-.11,0-.23-.01.26-.29.47-.57.72-.8.45-.43.92-.83,1.38-1.24.12-.11.25-.16.42-.15,4.17,0,8.34,0,12.51,0,.57,0,1.13-.02,1.68-.18.71-.21,1.35-.55,1.85-1.12.17-.2.3-.08.43,0,.86.52,1.72,1.03,2.46,1.71.58.54,1.13,1.11,1.7,1.67.02.02.03.05.05.1Z"/>
    <path class="cls-5" d="m9.44,30.06c.08,0,.16,0,.24,0,2.5,0,5,.02,7.5,0,1.44-.02,2.63-.61,3.53-1.78.21-.28.49-.5.75-.73.23-.2.5-.18.72-.01.29.23.54.51.8.77.24.24.46.49.71.72.18.17.19.17-.01.29-.85.5-1.72.94-2.65,1.26-.41.14-.82.31-1.24.42-.45.12-.91.21-1.36.27-.75.1-1.5.2-2.25.23-.67.03-1.35-.02-2.02-.08-.54-.05-1.09-.12-1.62-.26-.71-.18-1.41-.41-2.1-.64-.34-.11-.66-.26-.99-.39,0-.02.01-.05.02-.07Z"/>
    <path class="cls-8" d="m21.15,1.48h-10.63c2.54-1.2,7.38-1.42,10.63,0Z"/>
  </g>
  <path class="cls-7" d="m69.19,10.19v1.84c-.3-.38-.64-.71-1.02-.97-.86-.58-1.96-.87-3.29-.87s-2.51.33-3.61,1c-1.1.67-1.96,1.6-2.6,2.81-.64,1.21-.96,2.64-.96,4.3s.32,3.1.96,4.31c.64,1.22,1.5,2.15,2.6,2.81,1.09.66,2.3.98,3.61.98s2.32-.29,3.19-.88c.32-.22.61-.49.88-.79v6.77h5.12V10.19h-4.87Zm-.58,10.14c-.28.56-.65.98-1.1,1.27-.46.29-.97.43-1.55.43s-1.09-.14-1.55-.43c-.46-.29-.83-.71-1.1-1.27-.28-.56-.42-1.24-.42-2.03s.14-1.47.42-2.03c.28-.56.65-.98,1.1-1.27.46-.29.97-.43,1.55-.43s1.09.14,1.55.43c.46.29.83.71,1.1,1.27.28.56.42,1.24.42,2.03s-.14,1.47-.42,2.03Z"/>
  <path class="cls-7" d="m134.86,10.15c-.76,0-1.38-.25-1.85-.74-.47-.49-.7-1.1-.7-1.83s.23-1.34.7-1.83c.47-.49,1.09-.74,1.85-.74s1.38.23,1.85.7c.47.47.7,1.06.7,1.79s-.23,1.39-.69,1.89c-.46.5-1.08.75-1.86.75Zm-2.55,16.57v-14.63h5.11v14.63h-5.11Z"/>
  <path class="cls-7" d="m83.7,26.98c-1.26,0-2.39-.26-3.39-.79-1-.53-1.78-1.36-2.34-2.48-.56-1.13-.84-2.55-.84-4.28v-9.23h5.43v8.29c0,1.28.22,2.19.67,2.74.45.55,1.08.82,1.9.82.53,0,1.02-.13,1.46-.4.44-.26.79-.69,1.06-1.26.27-.58.4-1.33.4-2.24v-7.95h5.43v16.52h-5.17v-4.66l1,1.31c-.53,1.22-1.31,2.13-2.32,2.73-1.01.6-2.11.9-3.29.9Z"/>
  <g>
    <path class="cls-7" d="m101.78,26.98c-1.23,0-2.27-.22-3.13-.66s-1.5-1.04-1.95-1.8c-.45-.76-.67-1.61-.67-2.55,0-1,.24-1.86.73-2.59.48-.73,1.23-1.29,2.23-1.68,1-.39,2.3-.58,3.9-.58h3.64v2.97h-2.9c-.87,0-1.48.15-1.83.45s-.53.7-.53,1.2.18.9.54,1.2c.36.3.85.45,1.48.45.59,0,1.12-.15,1.61-.46.48-.31.84-.78,1.07-1.42l.74,2.1c-.28,1.12-.84,1.96-1.66,2.53s-1.91.85-3.26.85Z"/>
    <path class="cls-7" d="m106.33,26.71v-3.03l-.37-.75v-5.58c0-.9-.26-1.59-.78-2.08-.52-.49-1.35-.73-2.49-.73-.74,0-1.49.12-2.25.37-.76.25-1.4.6-1.93,1.03l-1.82-3.87c.87-.6,1.92-1.06,3.14-1.39,1.22-.33,2.44-.49,3.65-.49,2.5,0,4.44.6,5.81,1.81s2.06,3.1,2.06,5.68v9.03h-5.03Z"/>
  </g>
  <path class="cls-7" d="m150.48,10.19c1.19,0,2.27.26,3.23.77.96.51,1.72,1.3,2.28,2.36.56,1.06.84,2.43.84,4.11v9.3h-5.38v-8.37c0-1.16-.22-2.01-.67-2.54-.44-.53-1.06-.8-1.86-.8-.57,0-1.09.14-1.56.41-.47.27-.84.69-1.11,1.25-.26.56-.4,1.29-.4,2.19v7.86h-5.38V10.46h5.13v4.62l-.99-1.35c.59-1.18,1.39-2.07,2.41-2.66,1.02-.59,2.17-.89,3.46-.89Z"/>
  <path class="cls-7" d="m34.47,26.72l8.73-21.7h5.51l8.75,21.7h-5.82l-6.83-18.69h2.2l-6.83,18.69h-5.71Zm4.77-4.22l1.44-4.53h9.66l1.44,4.53h-12.54Z"/>
  <path class="cls-7" d="m113.91,26.72V5.02h5.19v16.83h10.13v4.87h-15.33Z"/>
  <path class="cls-7" d="m159.89,26.72V5.02h4.95v21.7h-4.95Zm4.11-2.92l.13-6.64,5.75-6.29h5.86l-6.38,7.4-2.52,2.28-2.84,3.25Zm6.25,2.92l-4.32-6.08,3.07-4.27,7.24,10.35h-5.99Z"/>
  <g>
    <path class="cls-7" d="m180.84,11.46h-1.54v-.58h3.72v.58h-1.54v4.07h-.64v-4.07Z"/>
    <path class="cls-7" d="m187.88,15.53v-3.39s-1.63,2.82-1.63,2.82h-.3l-1.62-2.8v3.37h-.62v-4.65h.53l1.87,3.27,1.85-3.27h.53v4.65s-.61,0-.61,0Z"/>
  </g>
</svg>