<?xml version="1.0" encoding="utf-8"?>
<!-- Generator: Adobe Illustrator 28.0.0, SVG Export Plug-In . SVG Version: 6.00 Build 0)  -->
<svg version="1.1" id="Capa_1" xmlns="http://www.w3.org/2000/svg" xmlns:xlink="http://www.w3.org/1999/xlink" x="0px" y="0px"
	 viewBox="0 0 240 36" style="enable-background:new 0 0 240 36;" xml:space="preserve">
<style type="text/css">
	.st0{fill:#2E333C;}
	.st1{fill:url(#SVGID_1_);}
	.st2{fill:url(#SVGID_00000137091411948855970090000005511386788058799751_);}
	.st3{fill:url(#SVGID_00000103242031321498868720000005854853080350739645_);}
	.st4{fill:url(#SVGID_00000183211152841202244200000017449951432573215119_);}
	.st5{fill:url(#SVGID_00000169552660039215756300000002284142191142339999_);}
	.st6{fill:url(#SVGID_00000075153106199766837020000015659821713268452744_);}
	.st7{fill:url(#SVGID_00000057137076743325654770000018317076685337516220_);}
	.st8{fill:url(#SVGID_00000122687121956135765250000005372330320182599309_);}
</style>
<g>
	<g>
		<g>
			<path class="st0" d="M62.65,23.32H51.04l-2.21,5.45H42.9L54.04,3.34h5.72l11.18,25.43h-6.07L62.65,23.32z M60.83,18.85
				l-3.97-9.74l-3.97,9.74H60.83z"/>
			<path class="st0" d="M92.48,9.23v26.59h-5.57V26.7c-1.38,1.57-3.3,2.36-5.75,2.36c-1.81,0-3.45-0.41-4.91-1.24
				c-1.46-0.82-2.61-2-3.45-3.52c-0.83-1.53-1.25-3.29-1.25-5.3c0-2.01,0.42-3.78,1.25-5.3c0.83-1.53,1.98-2.7,3.45-3.52
				c1.46-0.82,3.1-1.24,4.91-1.24c2.62,0,4.62,0.85,6,2.54V9.23H92.48z M85.62,22.94c0.93-0.98,1.39-2.29,1.39-3.94
				c0-1.65-0.46-2.96-1.39-3.94c-0.93-0.98-2.1-1.47-3.5-1.47c-1.43,0-2.61,0.49-3.54,1.47c-0.93,0.98-1.39,2.29-1.39,3.94
				c0,1.65,0.46,2.96,1.39,3.94c0.93,0.98,2.11,1.47,3.54,1.47C83.53,24.41,84.69,23.92,85.62,22.94z"/>
			<path class="st0" d="M116.99,9.23v19.54h-5.29v-2.32c-0.74,0.85-1.62,1.5-2.64,1.94c-1.02,0.45-2.13,0.67-3.32,0.67
				c-2.52,0-4.53-0.74-6-2.22c-1.48-1.48-2.21-3.67-2.21-6.58V9.23h5.57v10.21c0,3.15,1.3,4.72,3.89,4.72
				c1.33,0,2.41-0.44,3.22-1.33c0.81-0.88,1.21-2.2,1.21-3.94V9.23H116.99z"/>
			<path class="st0" d="M136.78,11.1c1.6,1.44,2.39,3.61,2.39,6.52v11.15h-5.22v-2.43c-1.05,1.82-3,2.72-5.86,2.72
				c-1.48,0-2.76-0.25-3.84-0.76c-1.08-0.51-1.91-1.21-2.48-2.11c-0.57-0.9-0.86-1.91-0.86-3.05c0-1.82,0.67-3.24,2.02-4.29
				c1.35-1.04,3.42-1.56,6.23-1.56h4.43c0-1.24-0.37-2.19-1.11-2.85c-0.74-0.67-1.85-1-3.32-1c-1.02,0-2.03,0.16-3.02,0.49
				c-0.99,0.33-1.83,0.77-2.52,1.33l-2-3.96c1.05-0.75,2.3-1.33,3.77-1.74c1.46-0.41,2.97-0.62,4.52-0.62
				C132.9,8.94,135.18,9.66,136.78,11.1z M132.03,24.58c0.74-0.45,1.26-1.11,1.57-1.98v-2h-3.82c-2.29,0-3.43,0.76-3.43,2.29
				c0,0.73,0.28,1.3,0.84,1.73c0.56,0.42,1.33,0.64,2.3,0.64C130.44,25.25,131.29,25.02,132.03,24.58z"/>
			<path class="st0" d="M144.6,3.34h5.79v20.63h12.54v4.8H144.6V3.34z"/>
			<path class="st0" d="M166.07,5.59c-0.64-0.6-0.96-1.36-0.96-2.25c0-0.9,0.32-1.65,0.96-2.25c0.64-0.6,1.48-0.91,2.5-0.91
				c1.02,0,1.86,0.29,2.5,0.87c0.64,0.58,0.96,1.31,0.96,2.18c0,0.94-0.32,1.73-0.96,2.34c-0.64,0.62-1.48,0.93-2.5,0.93
				C167.55,6.5,166.71,6.2,166.07,5.59z M165.78,9.23h5.57v19.54h-5.57V9.23z"/>
			<path class="st0" d="M193.99,11.12c1.46,1.45,2.2,3.61,2.2,6.47v11.19h-5.57V18.45c0-1.55-0.33-2.71-1-3.47
				c-0.67-0.76-1.63-1.14-2.89-1.14c-1.41,0-2.52,0.44-3.36,1.33c-0.83,0.88-1.25,2.2-1.25,3.94v9.66h-5.57V9.23h5.32v2.29
				c0.74-0.82,1.65-1.46,2.75-1.91c1.1-0.45,2.3-0.67,3.61-0.67C190.6,8.94,192.52,9.66,193.99,11.12z"/>
			<path class="st0" d="M209.47,21.11l-2.68,2.69v4.98h-5.57V1.82h5.57v15.26l8.14-7.85h6.64l-8,8.28l8.72,11.26h-6.75L209.47,21.11
				z"/>
		</g>
		<g>
			<path class="st0" d="M229.28,10.22h-2.06V9.47h4.96v0.76h-2.06v5.34h-0.85V10.22z"/>
			<path class="st0" d="M238.68,15.56l-0.01-4.44l-2.17,3.7h-0.39l-2.17-3.68v4.42h-0.82v-6.1h0.7l2.5,4.29l2.47-4.29h0.7l0.01,6.1
				H238.68z"/>
		</g>
	</g>
	<g>
		<g>
			<linearGradient id="SVGID_1_" gradientUnits="userSpaceOnUse" x1="0.5" y1="18.7011" x2="36.2024" y2="18.7011">
				<stop  offset="0" style="stop-color:#0069C7"/>
				<stop  offset="0.4281" style="stop-color:#087FD8"/>
				<stop  offset="1" style="stop-color:#1198EC"/>
			</linearGradient>
			<path class="st1" d="M36.2,18.98c-0.07,0.54-0.13,1.04-0.19,1.54c-0.03,0.24-0.09,0.47-0.11,0.7c-0.01,0.19-0.09,0.24-0.27,0.24
				c-0.6-0.01-1.21,0-1.81,0c-4.9,0.01-9.79,0.01-14.69,0.02c-0.48,0-0.95,0.01-1.43-0.03c-1.43-0.13-2.66-0.68-3.57-1.84
				c-0.26-0.33-0.54-0.67-0.87-0.92c-0.52-0.38-0.98-0.27-1.47,0.27c-0.28,0.31-0.54,0.63-0.81,0.94c-0.57,0.65-1.25,1.12-2.09,1.36
				c-0.49,0.14-0.98,0.2-1.49,0.19c-2.09-0.01-4.19-0.01-6.28,0c-0.24,0-0.32-0.07-0.34-0.32C0.7,20.5,0.59,19.86,0.5,19.21
				c-0.01-0.06,0-0.13,0-0.23c0.1,0,0.2,0,0.3,0c2.32,0,4.65,0.03,6.97-0.02c1.63-0.03,2.95-0.75,3.97-2.03
				c0.26-0.33,0.58-0.61,0.91-0.87c0.27-0.22,0.57-0.19,0.84,0.04c0.31,0.27,0.6,0.57,0.87,0.88c0.5,0.57,1.02,1.13,1.72,1.43
				c0.46,0.2,0.95,0.4,1.44,0.45c0.83,0.1,1.67,0.11,2.51,0.11c5.26,0.01,10.52,0,15.78,0C35.94,18.98,36.05,18.98,36.2,18.98z"/>
			
				<linearGradient id="SVGID_00000099653670333524752870000007788591299952859043_" gradientUnits="userSpaceOnUse" x1="0.551" y1="13.6717" x2="36.172" y2="13.6717">
				<stop  offset="0" style="stop-color:#0069C7"/>
				<stop  offset="0.4281" style="stop-color:#087FD8"/>
				<stop  offset="1" style="stop-color:#1198EC"/>
			</linearGradient>
			<path style="fill:url(#SVGID_00000099653670333524752870000007788591299952859043_);" d="M0.55,16.39
				c0.06-0.47,0.11-0.91,0.17-1.34c0.04-0.26,0.11-0.51,0.15-0.77c0.05-0.34,0.06-0.36,0.39-0.36c3.76,0,7.52,0,11.28-0.01
				c0.82,0,1.63-0.14,2.38-0.48c0.5-0.23,0.94-0.55,1.31-0.94c0.29-0.31,0.55-0.65,0.83-0.96c0.25-0.28,0.51-0.58,0.92-0.61
				c0.19-0.02,0.4,0.02,0.57,0.1c0.39,0.18,0.63,0.52,0.87,0.86c0.3,0.44,0.7,0.75,1.12,1.06c0.49,0.37,1.05,0.61,1.64,0.76
				c0.53,0.13,1.09,0.21,1.63,0.21c3.83,0.02,7.66,0.01,11.5,0c0.43,0,0.45,0,0.53,0.42c0.13,0.67,0.23,1.35,0.34,2.04
				c-0.13,0.01-0.2,0.02-0.27,0.02c-5.01,0-10.03,0.01-15.04-0.01c-1.68,0-3-0.76-4.01-2.09c-0.21-0.28-0.5-0.51-0.77-0.74
				c-0.34-0.27-0.84-0.18-1.13,0.1c-0.3,0.3-0.6,0.6-0.86,0.92c-0.52,0.63-1.15,1.1-1.9,1.41c-0.75,0.31-1.52,0.41-2.32,0.41
				c-2.99-0.01-5.98,0-8.97,0C0.8,16.42,0.7,16.4,0.55,16.39z"/>
			
				<linearGradient id="SVGID_00000133491507546306670160000007969013521394617989_" gradientUnits="userSpaceOnUse" x1="1.5717" y1="23.7597" x2="35.1159" y2="23.7597">
				<stop  offset="0" style="stop-color:#0069C7"/>
				<stop  offset="0.4281" style="stop-color:#087FD8"/>
				<stop  offset="1" style="stop-color:#1198EC"/>
			</linearGradient>
			<path style="fill:url(#SVGID_00000133491507546306670160000007969013521394617989_);" d="M1.57,24.06c0.12,0,0.22,0,0.32,0
				c2.66,0,5.32,0.03,7.97-0.02c1.66-0.03,3.03-0.7,4.06-2.05c0.23-0.31,0.53-0.58,0.83-0.83c0.28-0.24,0.6-0.25,0.88-0.02
				c0.32,0.26,0.63,0.55,0.89,0.87c0.52,0.64,1.12,1.19,1.87,1.53c0.44,0.19,0.91,0.35,1.38,0.42c0.65,0.09,1.31,0.1,1.97,0.11
				c4.33,0.01,8.67,0,13,0c0.11,0,0.22,0,0.38,0c-0.05,0.17-0.07,0.33-0.13,0.46c-0.29,0.64-0.59,1.28-0.89,1.92
				c-0.02,0.05-0.09,0.08-0.15,0.1c-0.05,0.02-0.11,0-0.17,0c-3.39,0-6.78,0-10.17,0c-0.74,0-1.48-0.06-2.17-0.31
				c-1.03-0.37-1.85-1.02-2.5-1.9c-0.27-0.36-0.58-0.7-1.06-0.81c-0.33-0.07-0.6,0.07-0.82,0.29c-0.35,0.36-0.66,0.77-1.01,1.14
				c-0.62,0.66-1.36,1.15-2.25,1.38c-0.67,0.17-1.34,0.22-2.02,0.22c-2.96-0.01-5.92-0.01-8.88,0c-0.21,0-0.32-0.06-0.41-0.25
				c-0.29-0.68-0.59-1.35-0.88-2.02C1.58,24.22,1.59,24.16,1.57,24.06z"/>
			
				<linearGradient id="SVGID_00000154393496227941571920000000160149620970460314_" gradientUnits="userSpaceOnUse" x1="1.7761" y1="8.6687" x2="34.9001" y2="8.6687">
				<stop  offset="0" style="stop-color:#0069C7"/>
				<stop  offset="0.4281" style="stop-color:#087FD8"/>
				<stop  offset="1" style="stop-color:#1198EC"/>
			</linearGradient>
			<path style="fill:url(#SVGID_00000154393496227941571920000000160149620970460314_);" d="M34.9,11.43
				c-0.07,0-0.12,0.01-0.16,0.01c-2.94,0-5.87,0.03-8.81-0.02c-1.65-0.02-3.02-0.71-4.02-2.06c-0.17-0.24-0.38-0.46-0.6-0.65
				c-0.54-0.49-1.01-0.42-1.52,0.12c-0.4,0.42-0.76,0.87-1.17,1.27c-0.6,0.6-1.33,0.97-2.17,1.16c-0.84,0.19-1.69,0.17-2.54,0.17
				c-3.95,0-7.9,0-11.85,0c-0.34,0-0.35-0.01-0.2-0.32c0.33-0.68,0.67-1.35,0.99-2.03c0.07-0.15,0.17-0.19,0.31-0.19
				c3.01,0,6.03,0,9.04,0.01c1.52,0.01,3.04,0.06,4.56,0.05c0.7,0,1.41-0.06,2.1-0.19c0.96-0.18,1.8-0.63,2.48-1.35
				c0.37-0.39,0.7-0.82,1.09-1.19c0.17-0.16,0.43-0.27,0.67-0.32c0.34-0.07,0.61,0.14,0.82,0.38c0.32,0.36,0.61,0.76,0.94,1.11
				c0.5,0.53,1.12,0.91,1.8,1.17c0.46,0.17,0.92,0.32,1.42,0.33c0.58,0.02,1.17,0.07,1.75,0.08c1.19,0.01,2.38,0,3.57-0.01
				c0.22,0,0.35,0.05,0.45,0.27c0.33,0.7,0.69,1.39,1.03,2.09C34.9,11.34,34.9,11.38,34.9,11.43z"/>
			
				<linearGradient id="SVGID_00000012465783591958201200000011871845502394685070_" gradientUnits="userSpaceOnUse" x1="4.4372" y1="28.8435" x2="32.2604" y2="28.8435">
				<stop  offset="0" style="stop-color:#0069C7"/>
				<stop  offset="0.4281" style="stop-color:#087FD8"/>
				<stop  offset="1" style="stop-color:#1198EC"/>
			</linearGradient>
			<path style="fill:url(#SVGID_00000012465783591958201200000011871845502394685070_);" d="M32.26,29.19
				c-0.42,0.46-0.82,0.93-1.26,1.38c-0.31,0.33-0.66,0.62-1,0.92c-0.06,0.06-0.16,0.1-0.25,0.1c-0.73,0-1.46,0.05-2.19-0.02
				c-1.03-0.1-1.97-0.5-2.73-1.22c-0.31-0.29-0.55-0.64-0.83-0.95c-0.2-0.22-0.39-0.45-0.63-0.62c-0.48-0.34-1.06-0.2-1.49,0.3
				c-0.36,0.42-0.71,0.86-1.1,1.25c-0.61,0.61-1.35,1.02-2.22,1.15c-0.44,0.07-0.89,0.11-1.34,0.11c-3.38,0.01-6.76,0-10.14,0.01
				c-0.21,0-0.37-0.04-0.53-0.18c-0.77-0.67-1.47-1.4-2.1-2.2c-0.01-0.02-0.02-0.04-0.03-0.09c0.11,0,0.21-0.01,0.31-0.01
				c3.39,0,6.78,0.01,10.16-0.01c1.7-0.01,3.06-0.74,4.1-2.08c0.19-0.24,0.4-0.48,0.64-0.68c0.48-0.4,0.9-0.34,1.35,0.11
				c0.39,0.39,0.72,0.83,1.11,1.21c0.65,0.63,1.4,1.1,2.3,1.26c0.54,0.09,1.09,0.17,1.64,0.17c1.96,0.02,3.92,0.01,5.88,0.01
				c0.09,0,0.19,0,0.28,0C32.23,29.14,32.25,29.16,32.26,29.19z"/>
			
				<linearGradient id="SVGID_00000009580380514101235050000008204078562930482573_" gradientUnits="userSpaceOnUse" x1="4.8213" y1="4.3026" x2="31.8282" y2="4.3026">
				<stop  offset="0" style="stop-color:#0069C7"/>
				<stop  offset="0.4281" style="stop-color:#087FD8"/>
				<stop  offset="1" style="stop-color:#1198EC"/>
			</linearGradient>
			<path style="fill:url(#SVGID_00000009580380514101235050000008204078562930482573_);" d="M31.83,6.35C30.9,6.36,30,6.35,29.16,6
				c-0.8-0.33-1.48-0.82-2.01-1.53c-0.24-0.32-0.53-0.6-0.81-0.87c-0.37-0.34-0.87-0.37-1.24-0.03c-0.39,0.37-0.74,0.78-1.1,1.18
				c-0.6,0.67-1.33,1.13-2.17,1.39c-0.68,0.21-1.39,0.22-2.09,0.22C14.84,6.39,9.96,6.38,5.08,6.38c-0.06,0-0.12-0.01-0.26-0.01
				c0.3-0.34,0.55-0.65,0.83-0.92C6.18,4.96,6.73,4.5,7.26,4.02c0.14-0.13,0.3-0.18,0.49-0.18c4.86,0,9.71,0,14.57,0
				c0.66,0,1.32-0.02,1.96-0.21c0.82-0.25,1.58-0.63,2.15-1.29c0.2-0.23,0.35-0.1,0.5-0.01c1,0.59,2,1.18,2.86,1.97
				c0.68,0.62,1.32,1.28,1.98,1.92C31.79,6.26,31.8,6.29,31.83,6.35z"/>
			
				<linearGradient id="SVGID_00000180339181992236789600000005082886346912194726_" gradientUnits="userSpaceOnUse" x1="10.8932" y1="33.4579" x2="27.6493" y2="33.4579">
				<stop  offset="0" style="stop-color:#0069C7"/>
				<stop  offset="0.4281" style="stop-color:#087FD8"/>
				<stop  offset="1" style="stop-color:#1198EC"/>
			</linearGradient>
			<path style="fill:url(#SVGID_00000180339181992236789600000005082886346912194726_);" d="M10.91,34.16c0.09,0,0.18,0,0.28,0
				c2.91,0,5.82,0.03,8.73-0.01c1.68-0.02,3.07-0.7,4.11-2.05c0.25-0.32,0.57-0.57,0.87-0.84c0.26-0.23,0.58-0.21,0.83-0.01
				c0.33,0.26,0.62,0.58,0.93,0.88c0.28,0.27,0.54,0.57,0.83,0.83c0.2,0.19,0.22,0.2-0.01,0.33c-0.98,0.58-2,1.08-3.09,1.45
				c-0.48,0.16-0.96,0.35-1.45,0.48c-0.52,0.14-1.05,0.24-1.59,0.31c-0.87,0.11-1.74,0.23-2.62,0.26c-0.78,0.03-1.57-0.02-2.35-0.09
				c-0.63-0.06-1.27-0.14-1.89-0.29c-0.83-0.2-1.64-0.47-2.45-0.73c-0.39-0.13-0.77-0.3-1.16-0.45
				C10.9,34.22,10.9,34.19,10.91,34.16z"/>
			
				<linearGradient id="SVGID_00000121261280341278624630000005932967933037176996_" gradientUnits="userSpaceOnUse" x1="12.1681" y1="0.747" x2="24.5514" y2="0.747">
				<stop  offset="0" style="stop-color:#0069C7"/>
				<stop  offset="0.4281" style="stop-color:#087FD8"/>
				<stop  offset="1" style="stop-color:#1198EC"/>
			</linearGradient>
			<path style="fill:url(#SVGID_00000121261280341278624630000005932967933037176996_);" d="M24.55,1.31c-4.17,0-8.26,0-12.38,0
				C15.13-0.06,20.77-0.32,24.55,1.31z"/>
		</g>
	</g>
</g>
</svg>
